G04 MADE WITH FRITZING*
G04 WWW.FRITZING.ORG*
G04 DOUBLE SIDED*
G04 HOLES PLATED*
G04 CONTOUR ON CENTER OF CONTOUR VECTOR*
%ASAXBY*%
%FSLAX23Y23*%
%MOIN*%
%OFA0B0*%
%SFA1.0B1.0*%
%ADD10C,0.078000*%
%ADD11C,0.074000*%
%ADD12C,0.080000*%
%ADD13C,0.075000*%
%ADD14C,0.082000*%
%ADD15R,0.078000X0.078000*%
%ADD16R,0.082000X0.082000*%
%ADD17C,0.024000*%
%LNCOPPER1*%
G90*
G70*
G54D10*
X1292Y1897D03*
X1192Y1897D03*
G54D11*
X92Y697D03*
X92Y1397D03*
X92Y697D03*
X92Y1397D03*
G54D12*
X592Y1197D03*
X592Y797D03*
G54D10*
X1192Y797D03*
X1192Y1197D03*
X1192Y797D03*
X1192Y1197D03*
G54D13*
X1392Y897D03*
X1792Y897D03*
G54D14*
X1592Y1697D03*
X1692Y1697D03*
X1792Y1697D03*
G54D15*
X1292Y1897D03*
G54D16*
X1592Y1697D03*
G54D17*
X1192Y1867D02*
X1192Y1795D01*
D02*
X1192Y1795D02*
X1192Y1228D01*
D02*
X1161Y1197D02*
X623Y1197D01*
D02*
X592Y1228D02*
X592Y1396D01*
D02*
X592Y1396D02*
X123Y1397D01*
D02*
X1161Y797D02*
X623Y797D01*
D02*
X1293Y897D02*
X1363Y897D01*
D02*
X1292Y1867D02*
X1293Y897D01*
D02*
X1591Y997D02*
X1592Y1665D01*
D02*
X1793Y997D02*
X1591Y997D01*
D02*
X1792Y926D02*
X1793Y997D01*
D02*
X1692Y1795D02*
X1491Y1795D01*
D02*
X1491Y796D02*
X1223Y797D01*
D02*
X1692Y1729D02*
X1692Y1795D01*
D02*
X1491Y1795D02*
X1491Y796D01*
D02*
X1293Y1896D02*
X1491Y1896D01*
D02*
X1793Y1896D02*
X1792Y1729D01*
D02*
X1317Y1880D02*
X1293Y1896D01*
D02*
X1491Y1896D02*
X1793Y1896D01*
D02*
X123Y697D02*
X1793Y695D01*
D02*
X1793Y695D02*
X1792Y868D01*
G36*
X1054Y427D02*
X1054Y425D01*
X1052Y425D01*
X1052Y424D01*
X1051Y424D01*
X1051Y422D01*
X1049Y422D01*
X1049Y419D01*
X1047Y419D01*
X1047Y416D01*
X1046Y416D01*
X1046Y411D01*
X1044Y411D01*
X1044Y407D01*
X1043Y407D01*
X1043Y388D01*
X1044Y388D01*
X1044Y387D01*
X1046Y387D01*
X1046Y385D01*
X1047Y385D01*
X1047Y384D01*
X1055Y384D01*
X1055Y385D01*
X1058Y385D01*
X1058Y388D01*
X1060Y388D01*
X1060Y390D01*
X1061Y390D01*
X1061Y394D01*
X1063Y394D01*
X1063Y399D01*
X1064Y399D01*
X1064Y405D01*
X1066Y405D01*
X1066Y421D01*
X1064Y421D01*
X1064Y424D01*
X1063Y424D01*
X1063Y425D01*
X1060Y425D01*
X1060Y427D01*
X1054Y427D01*
G37*
D02*
G36*
X784Y391D02*
X784Y390D01*
X783Y390D01*
X783Y387D01*
X784Y387D01*
X784Y382D01*
X786Y382D01*
X786Y377D01*
X787Y377D01*
X787Y373D01*
X789Y373D01*
X789Y371D01*
X790Y371D01*
X790Y373D01*
X792Y373D01*
X792Y374D01*
X793Y374D01*
X793Y376D01*
X795Y376D01*
X795Y382D01*
X793Y382D01*
X793Y385D01*
X792Y385D01*
X792Y388D01*
X790Y388D01*
X790Y390D01*
X787Y390D01*
X787Y391D01*
X784Y391D01*
G37*
D02*
G36*
X829Y388D02*
X829Y387D01*
X827Y387D01*
X827Y384D01*
X826Y384D01*
X826Y382D01*
X827Y382D01*
X827Y379D01*
X829Y379D01*
X829Y374D01*
X830Y374D01*
X830Y370D01*
X832Y370D01*
X832Y367D01*
X833Y367D01*
X833Y364D01*
X836Y364D01*
X836Y362D01*
X838Y362D01*
X838Y364D01*
X840Y364D01*
X840Y371D01*
X838Y371D01*
X838Y374D01*
X836Y374D01*
X836Y379D01*
X835Y379D01*
X835Y384D01*
X833Y384D01*
X833Y387D01*
X832Y387D01*
X832Y388D01*
X829Y388D01*
G37*
D02*
G36*
X735Y361D02*
X735Y351D01*
X736Y351D01*
X736Y353D01*
X741Y353D01*
X741Y354D01*
X739Y354D01*
X739Y359D01*
X738Y359D01*
X738Y361D01*
X735Y361D01*
G37*
D02*
G36*
X1014Y357D02*
X1014Y356D01*
X1012Y356D01*
X1012Y351D01*
X1010Y351D01*
X1010Y345D01*
X1009Y345D01*
X1009Y339D01*
X1007Y339D01*
X1007Y333D01*
X1006Y333D01*
X1006Y324D01*
X1004Y324D01*
X1004Y313D01*
X1003Y313D01*
X1003Y302D01*
X1001Y302D01*
X1001Y291D01*
X1000Y291D01*
X1000Y280D01*
X998Y280D01*
X998Y271D01*
X997Y271D01*
X997Y262D01*
X995Y262D01*
X995Y253D01*
X994Y253D01*
X994Y247D01*
X992Y247D01*
X992Y239D01*
X990Y239D01*
X990Y233D01*
X989Y233D01*
X989Y225D01*
X987Y225D01*
X987Y220D01*
X986Y220D01*
X986Y214D01*
X984Y214D01*
X984Y210D01*
X983Y210D01*
X983Y205D01*
X981Y205D01*
X981Y202D01*
X980Y202D01*
X980Y200D01*
X1058Y200D01*
X1058Y202D01*
X1055Y202D01*
X1055Y203D01*
X1054Y203D01*
X1054Y206D01*
X1052Y206D01*
X1052Y210D01*
X1051Y210D01*
X1051Y213D01*
X1049Y213D01*
X1049Y216D01*
X1047Y216D01*
X1047Y220D01*
X1046Y220D01*
X1046Y225D01*
X1044Y225D01*
X1044Y230D01*
X1043Y230D01*
X1043Y236D01*
X1041Y236D01*
X1041Y242D01*
X1040Y242D01*
X1040Y248D01*
X1038Y248D01*
X1038Y256D01*
X1037Y256D01*
X1037Y263D01*
X1035Y263D01*
X1035Y271D01*
X1034Y271D01*
X1034Y280D01*
X1032Y280D01*
X1032Y290D01*
X1031Y290D01*
X1031Y299D01*
X1029Y299D01*
X1029Y308D01*
X1027Y308D01*
X1027Y316D01*
X1026Y316D01*
X1026Y324D01*
X1024Y324D01*
X1024Y331D01*
X1023Y331D01*
X1023Y339D01*
X1021Y339D01*
X1021Y345D01*
X1020Y345D01*
X1020Y351D01*
X1018Y351D01*
X1018Y356D01*
X1017Y356D01*
X1017Y357D01*
X1014Y357D01*
G37*
D02*
G36*
X1106Y337D02*
X1106Y336D01*
X1104Y336D01*
X1104Y334D01*
X1103Y334D01*
X1103Y331D01*
X1101Y331D01*
X1101Y328D01*
X1100Y328D01*
X1100Y325D01*
X1098Y325D01*
X1098Y319D01*
X1097Y319D01*
X1097Y314D01*
X1095Y314D01*
X1095Y307D01*
X1094Y307D01*
X1094Y300D01*
X1092Y300D01*
X1092Y293D01*
X1091Y293D01*
X1091Y283D01*
X1089Y283D01*
X1089Y276D01*
X1088Y276D01*
X1088Y268D01*
X1086Y268D01*
X1086Y260D01*
X1084Y260D01*
X1084Y253D01*
X1083Y253D01*
X1083Y245D01*
X1081Y245D01*
X1081Y239D01*
X1080Y239D01*
X1080Y233D01*
X1078Y233D01*
X1078Y230D01*
X1152Y230D01*
X1152Y231D01*
X1149Y231D01*
X1149Y233D01*
X1148Y233D01*
X1148Y234D01*
X1146Y234D01*
X1146Y237D01*
X1145Y237D01*
X1145Y239D01*
X1143Y239D01*
X1143Y242D01*
X1141Y242D01*
X1141Y247D01*
X1140Y247D01*
X1140Y250D01*
X1138Y250D01*
X1138Y254D01*
X1137Y254D01*
X1137Y259D01*
X1135Y259D01*
X1135Y263D01*
X1134Y263D01*
X1134Y270D01*
X1132Y270D01*
X1132Y274D01*
X1131Y274D01*
X1131Y280D01*
X1129Y280D01*
X1129Y287D01*
X1128Y287D01*
X1128Y293D01*
X1126Y293D01*
X1126Y299D01*
X1124Y299D01*
X1124Y305D01*
X1123Y305D01*
X1123Y311D01*
X1121Y311D01*
X1121Y316D01*
X1120Y316D01*
X1120Y320D01*
X1118Y320D01*
X1118Y325D01*
X1117Y325D01*
X1117Y328D01*
X1115Y328D01*
X1115Y331D01*
X1114Y331D01*
X1114Y334D01*
X1112Y334D01*
X1112Y336D01*
X1109Y336D01*
X1109Y337D01*
X1106Y337D01*
G37*
D02*
G36*
X1197Y310D02*
X1197Y308D01*
X1194Y308D01*
X1194Y305D01*
X1192Y305D01*
X1192Y304D01*
X1191Y304D01*
X1191Y300D01*
X1189Y300D01*
X1189Y297D01*
X1188Y297D01*
X1188Y294D01*
X1186Y294D01*
X1186Y291D01*
X1185Y291D01*
X1185Y287D01*
X1183Y287D01*
X1183Y282D01*
X1181Y282D01*
X1181Y277D01*
X1180Y277D01*
X1180Y273D01*
X1178Y273D01*
X1178Y268D01*
X1177Y268D01*
X1177Y263D01*
X1175Y263D01*
X1175Y259D01*
X1174Y259D01*
X1174Y256D01*
X1242Y256D01*
X1242Y257D01*
X1238Y257D01*
X1238Y259D01*
X1237Y259D01*
X1237Y260D01*
X1235Y260D01*
X1235Y262D01*
X1234Y262D01*
X1234Y263D01*
X1232Y263D01*
X1232Y265D01*
X1231Y265D01*
X1231Y268D01*
X1229Y268D01*
X1229Y270D01*
X1228Y270D01*
X1228Y273D01*
X1226Y273D01*
X1226Y274D01*
X1225Y274D01*
X1225Y277D01*
X1223Y277D01*
X1223Y280D01*
X1222Y280D01*
X1222Y283D01*
X1220Y283D01*
X1220Y287D01*
X1218Y287D01*
X1218Y290D01*
X1217Y290D01*
X1217Y293D01*
X1215Y293D01*
X1215Y294D01*
X1214Y294D01*
X1214Y297D01*
X1212Y297D01*
X1212Y300D01*
X1211Y300D01*
X1211Y302D01*
X1209Y302D01*
X1209Y304D01*
X1208Y304D01*
X1208Y305D01*
X1206Y305D01*
X1206Y307D01*
X1205Y307D01*
X1205Y308D01*
X1203Y308D01*
X1203Y310D01*
X1197Y310D01*
G37*
D02*
G36*
X1288Y290D02*
X1288Y288D01*
X1286Y288D01*
X1286Y287D01*
X1283Y287D01*
X1283Y285D01*
X1282Y285D01*
X1282Y283D01*
X1280Y283D01*
X1280Y282D01*
X1279Y282D01*
X1279Y280D01*
X1277Y280D01*
X1277Y279D01*
X1275Y279D01*
X1275Y277D01*
X1274Y277D01*
X1274Y274D01*
X1272Y274D01*
X1272Y273D01*
X1271Y273D01*
X1271Y271D01*
X1332Y271D01*
X1332Y273D01*
X1328Y273D01*
X1328Y274D01*
X1325Y274D01*
X1325Y276D01*
X1322Y276D01*
X1322Y277D01*
X1320Y277D01*
X1320Y279D01*
X1317Y279D01*
X1317Y280D01*
X1315Y280D01*
X1315Y282D01*
X1312Y282D01*
X1312Y283D01*
X1311Y283D01*
X1311Y285D01*
X1308Y285D01*
X1308Y287D01*
X1305Y287D01*
X1305Y288D01*
X1302Y288D01*
X1302Y290D01*
X1288Y290D01*
G37*
D02*
G36*
X1374Y279D02*
X1374Y277D01*
X1369Y277D01*
X1369Y276D01*
X1365Y276D01*
X1365Y274D01*
X1360Y274D01*
X1360Y273D01*
X1354Y273D01*
X1354Y271D01*
X1463Y271D01*
X1463Y276D01*
X1456Y276D01*
X1456Y277D01*
X1446Y277D01*
X1446Y279D01*
X1374Y279D01*
G37*
D02*
G36*
X1269Y271D02*
X1269Y270D01*
X1463Y270D01*
X1463Y271D01*
X1269Y271D01*
G37*
D02*
G36*
X1269Y271D02*
X1269Y270D01*
X1463Y270D01*
X1463Y271D01*
X1269Y271D01*
G37*
D02*
G36*
X1268Y270D02*
X1268Y267D01*
X1266Y267D01*
X1266Y265D01*
X1265Y265D01*
X1265Y263D01*
X1263Y263D01*
X1263Y262D01*
X1262Y262D01*
X1262Y260D01*
X1260Y260D01*
X1260Y259D01*
X1257Y259D01*
X1257Y257D01*
X1254Y257D01*
X1254Y256D01*
X1463Y256D01*
X1463Y270D01*
X1268Y270D01*
G37*
D02*
G36*
X1174Y256D02*
X1174Y254D01*
X1463Y254D01*
X1463Y256D01*
X1174Y256D01*
G37*
D02*
G36*
X1174Y256D02*
X1174Y254D01*
X1463Y254D01*
X1463Y256D01*
X1174Y256D01*
G37*
D02*
G36*
X1172Y254D02*
X1172Y250D01*
X1171Y250D01*
X1171Y247D01*
X1169Y247D01*
X1169Y243D01*
X1168Y243D01*
X1168Y240D01*
X1166Y240D01*
X1166Y237D01*
X1165Y237D01*
X1165Y234D01*
X1163Y234D01*
X1163Y233D01*
X1161Y233D01*
X1161Y231D01*
X1158Y231D01*
X1158Y230D01*
X1463Y230D01*
X1463Y254D01*
X1172Y254D01*
G37*
D02*
G36*
X1078Y230D02*
X1078Y228D01*
X1463Y228D01*
X1463Y230D01*
X1078Y230D01*
G37*
D02*
G36*
X1078Y230D02*
X1078Y228D01*
X1463Y228D01*
X1463Y230D01*
X1078Y230D01*
G37*
D02*
G36*
X1077Y228D02*
X1077Y222D01*
X1075Y222D01*
X1075Y217D01*
X1074Y217D01*
X1074Y214D01*
X1072Y214D01*
X1072Y211D01*
X1071Y211D01*
X1071Y208D01*
X1069Y208D01*
X1069Y205D01*
X1067Y205D01*
X1067Y203D01*
X1066Y203D01*
X1066Y202D01*
X1063Y202D01*
X1063Y200D01*
X1463Y200D01*
X1463Y228D01*
X1077Y228D01*
G37*
D02*
G36*
X980Y200D02*
X980Y199D01*
X1463Y199D01*
X1463Y200D01*
X980Y200D01*
G37*
D02*
G36*
X980Y200D02*
X980Y199D01*
X1463Y199D01*
X1463Y200D01*
X980Y200D01*
G37*
D02*
G36*
X980Y199D02*
X980Y197D01*
X978Y197D01*
X978Y194D01*
X977Y194D01*
X977Y191D01*
X975Y191D01*
X975Y190D01*
X974Y190D01*
X974Y188D01*
X972Y188D01*
X972Y186D01*
X1463Y186D01*
X1463Y199D01*
X980Y199D01*
G37*
D02*
G36*
X1217Y356D02*
X1217Y354D01*
X1215Y354D01*
X1215Y353D01*
X1214Y353D01*
X1214Y348D01*
X1212Y348D01*
X1212Y342D01*
X1211Y342D01*
X1211Y337D01*
X1209Y337D01*
X1209Y336D01*
X1211Y336D01*
X1211Y333D01*
X1212Y333D01*
X1212Y331D01*
X1215Y331D01*
X1215Y333D01*
X1217Y333D01*
X1217Y334D01*
X1218Y334D01*
X1218Y337D01*
X1220Y337D01*
X1220Y342D01*
X1222Y342D01*
X1222Y348D01*
X1223Y348D01*
X1223Y354D01*
X1222Y354D01*
X1222Y356D01*
X1217Y356D01*
G37*
D02*
G36*
X685Y334D02*
X685Y333D01*
X684Y333D01*
X684Y330D01*
X682Y330D01*
X682Y327D01*
X684Y327D01*
X684Y324D01*
X687Y324D01*
X687Y325D01*
X689Y325D01*
X689Y333D01*
X687Y333D01*
X687Y334D01*
X685Y334D01*
G37*
D02*
G36*
X481Y438D02*
X481Y425D01*
X923Y425D01*
X923Y427D01*
X920Y427D01*
X920Y436D01*
X921Y436D01*
X921Y438D01*
X481Y438D01*
G37*
D02*
G36*
X929Y438D02*
X929Y436D01*
X930Y436D01*
X930Y431D01*
X1063Y431D01*
X1063Y430D01*
X1067Y430D01*
X1067Y428D01*
X1071Y428D01*
X1071Y427D01*
X1072Y427D01*
X1072Y425D01*
X1074Y425D01*
X1074Y424D01*
X1075Y424D01*
X1075Y422D01*
X1097Y422D01*
X1097Y421D01*
X1101Y421D01*
X1101Y419D01*
X1106Y419D01*
X1106Y417D01*
X1108Y417D01*
X1108Y411D01*
X1106Y411D01*
X1106Y407D01*
X1104Y407D01*
X1104Y401D01*
X1103Y401D01*
X1103Y399D01*
X1114Y399D01*
X1114Y397D01*
X1117Y397D01*
X1117Y396D01*
X1121Y396D01*
X1121Y394D01*
X1126Y394D01*
X1126Y393D01*
X1128Y393D01*
X1128Y391D01*
X1135Y391D01*
X1135Y390D01*
X1140Y390D01*
X1140Y388D01*
X1143Y388D01*
X1143Y387D01*
X1148Y387D01*
X1148Y385D01*
X1152Y385D01*
X1152Y384D01*
X1157Y384D01*
X1157Y382D01*
X1160Y382D01*
X1160Y381D01*
X1169Y381D01*
X1169Y379D01*
X1172Y379D01*
X1172Y377D01*
X1174Y377D01*
X1174Y376D01*
X1175Y376D01*
X1175Y374D01*
X1188Y374D01*
X1188Y373D01*
X1191Y373D01*
X1191Y371D01*
X1255Y371D01*
X1255Y370D01*
X1257Y370D01*
X1257Y361D01*
X1255Y361D01*
X1255Y359D01*
X1463Y359D01*
X1463Y438D01*
X929Y438D01*
G37*
D02*
G36*
X930Y431D02*
X930Y427D01*
X927Y427D01*
X927Y425D01*
X1037Y425D01*
X1037Y427D01*
X1040Y427D01*
X1040Y428D01*
X1041Y428D01*
X1041Y430D01*
X1044Y430D01*
X1044Y431D01*
X930Y431D01*
G37*
D02*
G36*
X481Y425D02*
X481Y424D01*
X1035Y424D01*
X1035Y425D01*
X481Y425D01*
G37*
D02*
G36*
X481Y425D02*
X481Y424D01*
X1035Y424D01*
X1035Y425D01*
X481Y425D01*
G37*
D02*
G36*
X481Y424D02*
X481Y421D01*
X933Y421D01*
X933Y410D01*
X935Y410D01*
X935Y397D01*
X937Y397D01*
X937Y391D01*
X938Y391D01*
X938Y390D01*
X940Y390D01*
X940Y387D01*
X953Y387D01*
X953Y388D01*
X950Y388D01*
X950Y390D01*
X949Y390D01*
X949Y391D01*
X947Y391D01*
X947Y393D01*
X946Y393D01*
X946Y396D01*
X944Y396D01*
X944Y399D01*
X943Y399D01*
X943Y411D01*
X944Y411D01*
X944Y416D01*
X946Y416D01*
X946Y417D01*
X947Y417D01*
X947Y421D01*
X950Y421D01*
X950Y422D01*
X953Y422D01*
X953Y424D01*
X481Y424D01*
G37*
D02*
G36*
X964Y424D02*
X964Y422D01*
X967Y422D01*
X967Y421D01*
X969Y421D01*
X969Y416D01*
X970Y416D01*
X970Y414D01*
X969Y414D01*
X969Y411D01*
X967Y411D01*
X967Y410D01*
X978Y410D01*
X978Y416D01*
X980Y416D01*
X980Y419D01*
X981Y419D01*
X981Y421D01*
X983Y421D01*
X983Y422D01*
X984Y422D01*
X984Y424D01*
X964Y424D01*
G37*
D02*
G36*
X995Y424D02*
X995Y422D01*
X998Y422D01*
X998Y424D01*
X995Y424D01*
G37*
D02*
G36*
X1001Y424D02*
X1001Y410D01*
X1029Y410D01*
X1029Y414D01*
X1031Y414D01*
X1031Y417D01*
X1032Y417D01*
X1032Y421D01*
X1034Y421D01*
X1034Y424D01*
X1001Y424D01*
G37*
D02*
G36*
X1077Y422D02*
X1077Y419D01*
X1078Y419D01*
X1078Y416D01*
X1080Y416D01*
X1080Y407D01*
X1081Y407D01*
X1081Y404D01*
X1080Y404D01*
X1080Y396D01*
X1078Y396D01*
X1078Y393D01*
X1077Y393D01*
X1077Y390D01*
X1075Y390D01*
X1075Y387D01*
X1074Y387D01*
X1074Y385D01*
X1072Y385D01*
X1072Y384D01*
X1071Y384D01*
X1071Y382D01*
X1067Y382D01*
X1067Y381D01*
X1064Y381D01*
X1064Y379D01*
X1060Y379D01*
X1060Y377D01*
X1083Y377D01*
X1083Y379D01*
X1084Y379D01*
X1084Y384D01*
X1086Y384D01*
X1086Y390D01*
X1088Y390D01*
X1088Y394D01*
X1089Y394D01*
X1089Y399D01*
X1091Y399D01*
X1091Y404D01*
X1092Y404D01*
X1092Y408D01*
X1094Y408D01*
X1094Y414D01*
X1095Y414D01*
X1095Y417D01*
X1094Y417D01*
X1094Y422D01*
X1077Y422D01*
G37*
D02*
G36*
X481Y421D02*
X481Y417D01*
X912Y417D01*
X912Y411D01*
X913Y411D01*
X913Y404D01*
X923Y404D01*
X923Y408D01*
X921Y408D01*
X921Y414D01*
X918Y414D01*
X918Y419D01*
X930Y419D01*
X930Y421D01*
X481Y421D01*
G37*
D02*
G36*
X957Y419D02*
X957Y417D01*
X955Y417D01*
X955Y410D01*
X963Y410D01*
X963Y411D01*
X961Y411D01*
X961Y413D01*
X960Y413D01*
X960Y417D01*
X958Y417D01*
X958Y419D01*
X957Y419D01*
G37*
D02*
G36*
X987Y419D02*
X987Y417D01*
X986Y417D01*
X986Y416D01*
X987Y416D01*
X987Y414D01*
X989Y414D01*
X989Y413D01*
X992Y413D01*
X992Y411D01*
X994Y411D01*
X994Y410D01*
X998Y410D01*
X998Y411D01*
X997Y411D01*
X997Y414D01*
X995Y414D01*
X995Y416D01*
X994Y416D01*
X994Y417D01*
X992Y417D01*
X992Y419D01*
X987Y419D01*
G37*
D02*
G36*
X481Y417D02*
X481Y411D01*
X884Y411D01*
X884Y408D01*
X883Y408D01*
X883Y407D01*
X881Y407D01*
X881Y394D01*
X880Y394D01*
X880Y391D01*
X897Y391D01*
X897Y390D01*
X898Y390D01*
X898Y388D01*
X900Y388D01*
X900Y387D01*
X903Y387D01*
X903Y385D01*
X910Y385D01*
X910Y387D01*
X912Y387D01*
X912Y388D01*
X910Y388D01*
X910Y390D01*
X909Y390D01*
X909Y391D01*
X904Y391D01*
X904Y393D01*
X901Y393D01*
X901Y394D01*
X898Y394D01*
X898Y396D01*
X895Y396D01*
X895Y397D01*
X893Y397D01*
X893Y399D01*
X892Y399D01*
X892Y402D01*
X890Y402D01*
X890Y408D01*
X892Y408D01*
X892Y411D01*
X893Y411D01*
X893Y413D01*
X895Y413D01*
X895Y414D01*
X898Y414D01*
X898Y416D01*
X907Y416D01*
X907Y417D01*
X481Y417D01*
G37*
D02*
G36*
X481Y411D02*
X481Y407D01*
X869Y407D01*
X869Y404D01*
X867Y404D01*
X867Y401D01*
X869Y401D01*
X869Y397D01*
X870Y397D01*
X870Y396D01*
X872Y396D01*
X872Y394D01*
X873Y394D01*
X873Y393D01*
X876Y393D01*
X876Y405D01*
X872Y405D01*
X872Y408D01*
X873Y408D01*
X873Y410D01*
X880Y410D01*
X880Y411D01*
X481Y411D01*
G37*
D02*
G36*
X900Y411D02*
X900Y410D01*
X898Y410D01*
X898Y407D01*
X901Y407D01*
X901Y405D01*
X904Y405D01*
X904Y404D01*
X910Y404D01*
X910Y405D01*
X909Y405D01*
X909Y408D01*
X906Y408D01*
X906Y410D01*
X904Y410D01*
X904Y411D01*
X900Y411D01*
G37*
D02*
G36*
X955Y410D02*
X955Y408D01*
X980Y408D01*
X980Y410D01*
X955Y410D01*
G37*
D02*
G36*
X955Y410D02*
X955Y408D01*
X980Y408D01*
X980Y410D01*
X955Y410D01*
G37*
D02*
G36*
X995Y410D02*
X995Y408D01*
X1029Y408D01*
X1029Y410D01*
X995Y410D01*
G37*
D02*
G36*
X995Y410D02*
X995Y408D01*
X1029Y408D01*
X1029Y410D01*
X995Y410D01*
G37*
D02*
G36*
X955Y408D02*
X955Y404D01*
X957Y404D01*
X957Y401D01*
X981Y401D01*
X981Y399D01*
X983Y399D01*
X983Y396D01*
X984Y396D01*
X984Y394D01*
X986Y394D01*
X986Y393D01*
X989Y393D01*
X989Y391D01*
X994Y391D01*
X994Y397D01*
X990Y397D01*
X990Y399D01*
X989Y399D01*
X989Y401D01*
X987Y401D01*
X987Y402D01*
X984Y402D01*
X984Y404D01*
X983Y404D01*
X983Y405D01*
X981Y405D01*
X981Y407D01*
X980Y407D01*
X980Y408D01*
X955Y408D01*
G37*
D02*
G36*
X998Y408D02*
X998Y407D01*
X1000Y407D01*
X1000Y405D01*
X1001Y405D01*
X1001Y402D01*
X1003Y402D01*
X1003Y396D01*
X1001Y396D01*
X1001Y391D01*
X1000Y391D01*
X1000Y390D01*
X998Y390D01*
X998Y388D01*
X995Y388D01*
X995Y387D01*
X1034Y387D01*
X1034Y388D01*
X1032Y388D01*
X1032Y391D01*
X1031Y391D01*
X1031Y394D01*
X1029Y394D01*
X1029Y401D01*
X1027Y401D01*
X1027Y407D01*
X1029Y407D01*
X1029Y408D01*
X998Y408D01*
G37*
D02*
G36*
X481Y407D02*
X481Y397D01*
X798Y397D01*
X798Y396D01*
X801Y396D01*
X801Y394D01*
X804Y394D01*
X804Y391D01*
X806Y391D01*
X806Y390D01*
X807Y390D01*
X807Y377D01*
X806Y377D01*
X806Y376D01*
X804Y376D01*
X804Y373D01*
X801Y373D01*
X801Y371D01*
X799Y371D01*
X799Y370D01*
X796Y370D01*
X796Y368D01*
X792Y368D01*
X792Y367D01*
X790Y367D01*
X790Y364D01*
X792Y364D01*
X792Y359D01*
X793Y359D01*
X793Y354D01*
X819Y354D01*
X819Y357D01*
X821Y357D01*
X821Y364D01*
X819Y364D01*
X819Y367D01*
X818Y367D01*
X818Y371D01*
X816Y371D01*
X816Y376D01*
X815Y376D01*
X815Y379D01*
X813Y379D01*
X813Y384D01*
X812Y384D01*
X812Y388D01*
X810Y388D01*
X810Y391D01*
X809Y391D01*
X809Y396D01*
X807Y396D01*
X807Y399D01*
X804Y399D01*
X804Y401D01*
X803Y401D01*
X803Y402D01*
X806Y402D01*
X806Y404D01*
X810Y404D01*
X810Y405D01*
X815Y405D01*
X815Y407D01*
X481Y407D01*
G37*
D02*
G36*
X818Y407D02*
X818Y404D01*
X819Y404D01*
X819Y399D01*
X821Y399D01*
X821Y396D01*
X841Y396D01*
X841Y394D01*
X843Y394D01*
X843Y393D01*
X844Y393D01*
X844Y390D01*
X846Y390D01*
X846Y387D01*
X847Y387D01*
X847Y382D01*
X849Y382D01*
X849Y377D01*
X850Y377D01*
X850Y374D01*
X852Y374D01*
X852Y371D01*
X853Y371D01*
X853Y370D01*
X856Y370D01*
X856Y368D01*
X870Y368D01*
X870Y365D01*
X873Y365D01*
X873Y376D01*
X872Y376D01*
X872Y377D01*
X870Y377D01*
X870Y379D01*
X869Y379D01*
X869Y381D01*
X867Y381D01*
X867Y382D01*
X866Y382D01*
X866Y384D01*
X864Y384D01*
X864Y387D01*
X863Y387D01*
X863Y388D01*
X861Y388D01*
X861Y390D01*
X860Y390D01*
X860Y391D01*
X858Y391D01*
X858Y393D01*
X856Y393D01*
X856Y394D01*
X855Y394D01*
X855Y396D01*
X853Y396D01*
X853Y397D01*
X852Y397D01*
X852Y399D01*
X849Y399D01*
X849Y402D01*
X853Y402D01*
X853Y404D01*
X858Y404D01*
X858Y405D01*
X864Y405D01*
X864Y407D01*
X818Y407D01*
G37*
D02*
G36*
X907Y404D02*
X907Y402D01*
X923Y402D01*
X923Y404D01*
X907Y404D01*
G37*
D02*
G36*
X907Y404D02*
X907Y402D01*
X923Y402D01*
X923Y404D01*
X907Y404D01*
G37*
D02*
G36*
X912Y402D02*
X912Y401D01*
X913Y401D01*
X913Y399D01*
X915Y399D01*
X915Y397D01*
X917Y397D01*
X917Y396D01*
X918Y396D01*
X918Y387D01*
X917Y387D01*
X917Y385D01*
X921Y385D01*
X921Y388D01*
X924Y388D01*
X924Y396D01*
X923Y396D01*
X923Y402D01*
X912Y402D01*
G37*
D02*
G36*
X957Y401D02*
X957Y399D01*
X958Y399D01*
X958Y397D01*
X972Y397D01*
X972Y394D01*
X970Y394D01*
X970Y391D01*
X969Y391D01*
X969Y390D01*
X966Y390D01*
X966Y388D01*
X963Y388D01*
X963Y387D01*
X978Y387D01*
X978Y388D01*
X977Y388D01*
X977Y390D01*
X978Y390D01*
X978Y401D01*
X957Y401D01*
G37*
D02*
G36*
X1103Y399D02*
X1103Y396D01*
X1101Y396D01*
X1101Y391D01*
X1100Y391D01*
X1100Y387D01*
X1098Y387D01*
X1098Y382D01*
X1097Y382D01*
X1097Y376D01*
X1095Y376D01*
X1095Y371D01*
X1097Y371D01*
X1097Y368D01*
X1114Y368D01*
X1114Y371D01*
X1112Y371D01*
X1112Y388D01*
X1111Y388D01*
X1111Y394D01*
X1109Y394D01*
X1109Y396D01*
X1108Y396D01*
X1108Y397D01*
X1109Y397D01*
X1109Y399D01*
X1103Y399D01*
G37*
D02*
G36*
X481Y397D02*
X481Y385D01*
X763Y385D01*
X763Y387D01*
X761Y387D01*
X761Y388D01*
X763Y388D01*
X763Y390D01*
X769Y390D01*
X769Y391D01*
X773Y391D01*
X773Y393D01*
X778Y393D01*
X778Y394D01*
X783Y394D01*
X783Y396D01*
X787Y396D01*
X787Y397D01*
X481Y397D01*
G37*
D02*
G36*
X958Y397D02*
X958Y396D01*
X960Y396D01*
X960Y394D01*
X963Y394D01*
X963Y393D01*
X964Y393D01*
X964Y394D01*
X967Y394D01*
X967Y396D01*
X969Y396D01*
X969Y397D01*
X958Y397D01*
G37*
D02*
G36*
X821Y396D02*
X821Y394D01*
X823Y394D01*
X823Y391D01*
X824Y391D01*
X824Y390D01*
X826Y390D01*
X826Y393D01*
X827Y393D01*
X827Y394D01*
X830Y394D01*
X830Y396D01*
X821Y396D01*
G37*
D02*
G36*
X880Y391D02*
X880Y377D01*
X897Y377D01*
X897Y379D01*
X895Y379D01*
X895Y387D01*
X893Y387D01*
X893Y391D01*
X880Y391D01*
G37*
D02*
G36*
X1128Y391D02*
X1128Y390D01*
X1124Y390D01*
X1124Y376D01*
X1126Y376D01*
X1126Y377D01*
X1128Y377D01*
X1128Y379D01*
X1129Y379D01*
X1129Y382D01*
X1131Y382D01*
X1131Y384D01*
X1132Y384D01*
X1132Y385D01*
X1134Y385D01*
X1134Y387D01*
X1132Y387D01*
X1132Y388D01*
X1131Y388D01*
X1131Y391D01*
X1128Y391D01*
G37*
D02*
G36*
X980Y388D02*
X980Y387D01*
X986Y387D01*
X986Y388D01*
X980Y388D01*
G37*
D02*
G36*
X764Y387D02*
X764Y385D01*
X767Y385D01*
X767Y387D01*
X764Y387D01*
G37*
D02*
G36*
X933Y387D02*
X933Y385D01*
X1035Y385D01*
X1035Y387D01*
X933Y387D01*
G37*
D02*
G36*
X933Y387D02*
X933Y385D01*
X1035Y385D01*
X1035Y387D01*
X933Y387D01*
G37*
D02*
G36*
X933Y387D02*
X933Y385D01*
X1035Y385D01*
X1035Y387D01*
X933Y387D01*
G37*
D02*
G36*
X933Y387D02*
X933Y385D01*
X1035Y385D01*
X1035Y387D01*
X933Y387D01*
G37*
D02*
G36*
X1143Y387D02*
X1143Y385D01*
X1140Y385D01*
X1140Y384D01*
X1138Y384D01*
X1138Y382D01*
X1137Y382D01*
X1137Y381D01*
X1135Y381D01*
X1135Y379D01*
X1134Y379D01*
X1134Y377D01*
X1132Y377D01*
X1132Y376D01*
X1131Y376D01*
X1131Y374D01*
X1129Y374D01*
X1129Y373D01*
X1128Y373D01*
X1128Y370D01*
X1126Y370D01*
X1126Y368D01*
X1124Y368D01*
X1124Y367D01*
X1123Y367D01*
X1123Y365D01*
X1121Y365D01*
X1121Y364D01*
X1120Y364D01*
X1120Y361D01*
X1118Y361D01*
X1118Y359D01*
X1117Y359D01*
X1117Y357D01*
X1115Y357D01*
X1115Y356D01*
X1114Y356D01*
X1114Y354D01*
X1112Y354D01*
X1112Y353D01*
X1111Y353D01*
X1111Y351D01*
X1108Y351D01*
X1108Y350D01*
X1145Y350D01*
X1145Y351D01*
X1141Y351D01*
X1141Y353D01*
X1137Y353D01*
X1137Y354D01*
X1135Y354D01*
X1135Y357D01*
X1138Y357D01*
X1138Y361D01*
X1140Y361D01*
X1140Y365D01*
X1141Y365D01*
X1141Y368D01*
X1143Y368D01*
X1143Y373D01*
X1145Y373D01*
X1145Y377D01*
X1146Y377D01*
X1146Y382D01*
X1145Y382D01*
X1145Y387D01*
X1143Y387D01*
G37*
D02*
G36*
X481Y385D02*
X481Y384D01*
X769Y384D01*
X769Y385D01*
X481Y385D01*
G37*
D02*
G36*
X481Y385D02*
X481Y384D01*
X769Y384D01*
X769Y385D01*
X481Y385D01*
G37*
D02*
G36*
X917Y385D02*
X917Y384D01*
X1037Y384D01*
X1037Y385D01*
X917Y385D01*
G37*
D02*
G36*
X917Y385D02*
X917Y384D01*
X1037Y384D01*
X1037Y385D01*
X917Y385D01*
G37*
D02*
G36*
X481Y384D02*
X481Y376D01*
X712Y376D01*
X712Y374D01*
X713Y374D01*
X713Y367D01*
X742Y367D01*
X742Y365D01*
X746Y365D01*
X746Y364D01*
X747Y364D01*
X747Y362D01*
X749Y362D01*
X749Y361D01*
X750Y361D01*
X750Y359D01*
X752Y359D01*
X752Y356D01*
X753Y356D01*
X753Y351D01*
X750Y351D01*
X750Y350D01*
X744Y350D01*
X744Y348D01*
X738Y348D01*
X738Y347D01*
X736Y347D01*
X736Y345D01*
X755Y345D01*
X755Y344D01*
X756Y344D01*
X756Y342D01*
X755Y342D01*
X755Y340D01*
X776Y340D01*
X776Y344D01*
X779Y344D01*
X779Y345D01*
X781Y345D01*
X781Y351D01*
X779Y351D01*
X779Y356D01*
X778Y356D01*
X778Y361D01*
X776Y361D01*
X776Y365D01*
X775Y365D01*
X775Y370D01*
X773Y370D01*
X773Y374D01*
X772Y374D01*
X772Y379D01*
X770Y379D01*
X770Y384D01*
X481Y384D01*
G37*
D02*
G36*
X915Y384D02*
X915Y382D01*
X913Y382D01*
X913Y381D01*
X909Y381D01*
X909Y379D01*
X900Y379D01*
X900Y377D01*
X1051Y377D01*
X1051Y379D01*
X1044Y379D01*
X1044Y381D01*
X1041Y381D01*
X1041Y382D01*
X1038Y382D01*
X1038Y384D01*
X915Y384D01*
G37*
D02*
G36*
X880Y377D02*
X880Y376D01*
X1083Y376D01*
X1083Y377D01*
X880Y377D01*
G37*
D02*
G36*
X880Y377D02*
X880Y376D01*
X1083Y376D01*
X1083Y377D01*
X880Y377D01*
G37*
D02*
G36*
X880Y377D02*
X880Y376D01*
X1083Y376D01*
X1083Y377D01*
X880Y377D01*
G37*
D02*
G36*
X481Y376D02*
X481Y367D01*
X670Y367D01*
X670Y362D01*
X667Y362D01*
X667Y361D01*
X665Y361D01*
X665Y357D01*
X664Y357D01*
X664Y354D01*
X690Y354D01*
X690Y353D01*
X695Y353D01*
X695Y351D01*
X696Y351D01*
X696Y348D01*
X698Y348D01*
X698Y342D01*
X699Y342D01*
X699Y334D01*
X701Y334D01*
X701Y328D01*
X702Y328D01*
X702Y327D01*
X709Y327D01*
X709Y328D01*
X710Y328D01*
X710Y330D01*
X709Y330D01*
X709Y337D01*
X707Y337D01*
X707Y345D01*
X706Y345D01*
X706Y351D01*
X704Y351D01*
X704Y359D01*
X702Y359D01*
X702Y365D01*
X701Y365D01*
X701Y370D01*
X698Y370D01*
X698Y373D01*
X701Y373D01*
X701Y374D01*
X709Y374D01*
X709Y376D01*
X481Y376D01*
G37*
D02*
G36*
X878Y376D02*
X878Y365D01*
X923Y365D01*
X923Y364D01*
X926Y364D01*
X926Y362D01*
X929Y362D01*
X929Y361D01*
X930Y361D01*
X930Y359D01*
X932Y359D01*
X932Y356D01*
X933Y356D01*
X933Y353D01*
X935Y353D01*
X935Y350D01*
X937Y350D01*
X937Y344D01*
X938Y344D01*
X938Y337D01*
X940Y337D01*
X940Y331D01*
X941Y331D01*
X941Y324D01*
X943Y324D01*
X943Y316D01*
X944Y316D01*
X944Y308D01*
X946Y308D01*
X946Y300D01*
X947Y300D01*
X947Y291D01*
X949Y291D01*
X949Y283D01*
X950Y283D01*
X950Y274D01*
X952Y274D01*
X952Y265D01*
X953Y265D01*
X953Y256D01*
X955Y256D01*
X955Y247D01*
X957Y247D01*
X957Y239D01*
X958Y239D01*
X958Y231D01*
X960Y231D01*
X960Y223D01*
X961Y223D01*
X961Y216D01*
X963Y216D01*
X963Y210D01*
X964Y210D01*
X964Y205D01*
X966Y205D01*
X966Y200D01*
X967Y200D01*
X967Y199D01*
X969Y199D01*
X969Y200D01*
X970Y200D01*
X970Y205D01*
X972Y205D01*
X972Y213D01*
X974Y213D01*
X974Y220D01*
X975Y220D01*
X975Y228D01*
X977Y228D01*
X977Y239D01*
X978Y239D01*
X978Y250D01*
X980Y250D01*
X980Y262D01*
X981Y262D01*
X981Y273D01*
X983Y273D01*
X983Y282D01*
X984Y282D01*
X984Y290D01*
X986Y290D01*
X986Y299D01*
X987Y299D01*
X987Y307D01*
X989Y307D01*
X989Y313D01*
X990Y313D01*
X990Y319D01*
X992Y319D01*
X992Y325D01*
X994Y325D01*
X994Y331D01*
X995Y331D01*
X995Y336D01*
X997Y336D01*
X997Y340D01*
X998Y340D01*
X998Y345D01*
X1000Y345D01*
X1000Y350D01*
X1001Y350D01*
X1001Y353D01*
X1003Y353D01*
X1003Y356D01*
X1004Y356D01*
X1004Y359D01*
X1006Y359D01*
X1006Y362D01*
X1007Y362D01*
X1007Y365D01*
X1009Y365D01*
X1009Y367D01*
X1010Y367D01*
X1010Y368D01*
X1092Y368D01*
X1092Y370D01*
X1088Y370D01*
X1088Y371D01*
X1083Y371D01*
X1083Y373D01*
X1078Y373D01*
X1078Y374D01*
X1080Y374D01*
X1080Y376D01*
X878Y376D01*
G37*
D02*
G36*
X1160Y376D02*
X1160Y374D01*
X1157Y374D01*
X1157Y371D01*
X1155Y371D01*
X1155Y367D01*
X1154Y367D01*
X1154Y362D01*
X1152Y362D01*
X1152Y357D01*
X1151Y357D01*
X1151Y353D01*
X1152Y353D01*
X1152Y348D01*
X1154Y348D01*
X1154Y351D01*
X1157Y351D01*
X1157Y353D01*
X1158Y353D01*
X1158Y356D01*
X1160Y356D01*
X1160Y361D01*
X1161Y361D01*
X1161Y365D01*
X1163Y365D01*
X1163Y370D01*
X1165Y370D01*
X1165Y374D01*
X1163Y374D01*
X1163Y376D01*
X1160Y376D01*
G37*
D02*
G36*
X1175Y374D02*
X1175Y373D01*
X1181Y373D01*
X1181Y374D01*
X1175Y374D01*
G37*
D02*
G36*
X1194Y371D02*
X1194Y368D01*
X1195Y368D01*
X1195Y367D01*
X1206Y367D01*
X1206Y365D01*
X1211Y365D01*
X1211Y364D01*
X1215Y364D01*
X1215Y362D01*
X1226Y362D01*
X1226Y361D01*
X1229Y361D01*
X1229Y359D01*
X1248Y359D01*
X1248Y361D01*
X1246Y361D01*
X1246Y370D01*
X1248Y370D01*
X1248Y371D01*
X1194Y371D01*
G37*
D02*
G36*
X1180Y370D02*
X1180Y368D01*
X1177Y368D01*
X1177Y367D01*
X1175Y367D01*
X1175Y362D01*
X1174Y362D01*
X1174Y359D01*
X1172Y359D01*
X1172Y354D01*
X1171Y354D01*
X1171Y350D01*
X1169Y350D01*
X1169Y347D01*
X1171Y347D01*
X1171Y342D01*
X1172Y342D01*
X1172Y344D01*
X1175Y344D01*
X1175Y345D01*
X1177Y345D01*
X1177Y348D01*
X1178Y348D01*
X1178Y353D01*
X1180Y353D01*
X1180Y357D01*
X1181Y357D01*
X1181Y362D01*
X1183Y362D01*
X1183Y368D01*
X1181Y368D01*
X1181Y370D01*
X1180Y370D01*
G37*
D02*
G36*
X856Y368D02*
X856Y367D01*
X853Y367D01*
X853Y365D01*
X849Y365D01*
X849Y364D01*
X846Y364D01*
X846Y362D01*
X841Y362D01*
X841Y361D01*
X861Y361D01*
X861Y365D01*
X863Y365D01*
X863Y367D01*
X864Y367D01*
X864Y368D01*
X856Y368D01*
G37*
D02*
G36*
X1018Y368D02*
X1018Y367D01*
X1114Y367D01*
X1114Y368D01*
X1018Y368D01*
G37*
D02*
G36*
X1018Y368D02*
X1018Y367D01*
X1114Y367D01*
X1114Y368D01*
X1018Y368D01*
G37*
D02*
G36*
X481Y367D02*
X481Y362D01*
X642Y362D01*
X642Y359D01*
X641Y359D01*
X641Y357D01*
X638Y357D01*
X638Y356D01*
X639Y356D01*
X639Y354D01*
X641Y354D01*
X641Y353D01*
X642Y353D01*
X642Y350D01*
X644Y350D01*
X644Y348D01*
X645Y348D01*
X645Y347D01*
X647Y347D01*
X647Y344D01*
X649Y344D01*
X649Y342D01*
X650Y342D01*
X650Y339D01*
X653Y339D01*
X653Y342D01*
X655Y342D01*
X655Y347D01*
X656Y347D01*
X656Y350D01*
X658Y350D01*
X658Y354D01*
X659Y354D01*
X659Y361D01*
X655Y361D01*
X655Y362D01*
X653Y362D01*
X653Y364D01*
X658Y364D01*
X658Y365D01*
X667Y365D01*
X667Y367D01*
X481Y367D01*
G37*
D02*
G36*
X715Y367D02*
X715Y361D01*
X716Y361D01*
X716Y353D01*
X718Y353D01*
X718Y347D01*
X719Y347D01*
X719Y339D01*
X721Y339D01*
X721Y333D01*
X722Y333D01*
X722Y330D01*
X733Y330D01*
X733Y331D01*
X732Y331D01*
X732Y333D01*
X729Y333D01*
X729Y336D01*
X727Y336D01*
X727Y337D01*
X726Y337D01*
X726Y342D01*
X724Y342D01*
X724Y357D01*
X726Y357D01*
X726Y359D01*
X727Y359D01*
X727Y362D01*
X729Y362D01*
X729Y364D01*
X732Y364D01*
X732Y365D01*
X735Y365D01*
X735Y367D01*
X715Y367D01*
G37*
D02*
G36*
X1020Y367D02*
X1020Y365D01*
X1021Y365D01*
X1021Y364D01*
X1023Y364D01*
X1023Y362D01*
X1106Y362D01*
X1106Y356D01*
X1109Y356D01*
X1109Y357D01*
X1111Y357D01*
X1111Y359D01*
X1112Y359D01*
X1112Y362D01*
X1114Y362D01*
X1114Y367D01*
X1020Y367D01*
G37*
D02*
G36*
X1195Y367D02*
X1195Y361D01*
X1194Y361D01*
X1194Y354D01*
X1192Y354D01*
X1192Y350D01*
X1191Y350D01*
X1191Y347D01*
X1189Y347D01*
X1189Y339D01*
X1191Y339D01*
X1191Y336D01*
X1197Y336D01*
X1197Y340D01*
X1198Y340D01*
X1198Y345D01*
X1200Y345D01*
X1200Y350D01*
X1201Y350D01*
X1201Y356D01*
X1203Y356D01*
X1203Y361D01*
X1205Y361D01*
X1205Y362D01*
X1203Y362D01*
X1203Y364D01*
X1201Y364D01*
X1201Y367D01*
X1195Y367D01*
G37*
D02*
G36*
X878Y365D02*
X878Y364D01*
X876Y364D01*
X876Y361D01*
X875Y361D01*
X875Y359D01*
X873Y359D01*
X873Y357D01*
X872Y357D01*
X872Y356D01*
X910Y356D01*
X910Y357D01*
X912Y357D01*
X912Y359D01*
X913Y359D01*
X913Y362D01*
X915Y362D01*
X915Y364D01*
X918Y364D01*
X918Y365D01*
X878Y365D01*
G37*
D02*
G36*
X481Y362D02*
X481Y310D01*
X638Y310D01*
X638Y313D01*
X641Y313D01*
X641Y314D01*
X644Y314D01*
X644Y319D01*
X642Y319D01*
X642Y328D01*
X641Y328D01*
X641Y331D01*
X639Y331D01*
X639Y333D01*
X638Y333D01*
X638Y334D01*
X636Y334D01*
X636Y337D01*
X635Y337D01*
X635Y339D01*
X633Y339D01*
X633Y340D01*
X632Y340D01*
X632Y344D01*
X630Y344D01*
X630Y345D01*
X628Y345D01*
X628Y347D01*
X627Y347D01*
X627Y350D01*
X625Y350D01*
X625Y351D01*
X624Y351D01*
X624Y353D01*
X622Y353D01*
X622Y354D01*
X618Y354D01*
X618Y357D01*
X621Y357D01*
X621Y359D01*
X630Y359D01*
X630Y361D01*
X639Y361D01*
X639Y362D01*
X481Y362D01*
G37*
D02*
G36*
X838Y362D02*
X838Y361D01*
X840Y361D01*
X840Y362D01*
X838Y362D01*
G37*
D02*
G36*
X1023Y362D02*
X1023Y361D01*
X1024Y361D01*
X1024Y357D01*
X1026Y357D01*
X1026Y354D01*
X1027Y354D01*
X1027Y350D01*
X1100Y350D01*
X1100Y351D01*
X1098Y351D01*
X1098Y353D01*
X1097Y353D01*
X1097Y354D01*
X1095Y354D01*
X1095Y359D01*
X1097Y359D01*
X1097Y362D01*
X1023Y362D01*
G37*
D02*
G36*
X1217Y362D02*
X1217Y361D01*
X1220Y361D01*
X1220Y362D01*
X1217Y362D01*
G37*
D02*
G36*
X836Y361D02*
X836Y359D01*
X861Y359D01*
X861Y361D01*
X836Y361D01*
G37*
D02*
G36*
X836Y361D02*
X836Y359D01*
X861Y359D01*
X861Y361D01*
X836Y361D01*
G37*
D02*
G36*
X832Y359D02*
X832Y357D01*
X829Y357D01*
X829Y356D01*
X866Y356D01*
X866Y357D01*
X863Y357D01*
X863Y359D01*
X832Y359D01*
G37*
D02*
G36*
X1231Y359D02*
X1231Y357D01*
X1463Y357D01*
X1463Y359D01*
X1231Y359D01*
G37*
D02*
G36*
X1231Y359D02*
X1231Y357D01*
X1463Y357D01*
X1463Y359D01*
X1231Y359D01*
G37*
D02*
G36*
X1232Y357D02*
X1232Y356D01*
X1242Y356D01*
X1242Y354D01*
X1248Y354D01*
X1248Y353D01*
X1254Y353D01*
X1254Y351D01*
X1274Y351D01*
X1274Y350D01*
X1306Y350D01*
X1306Y336D01*
X1463Y336D01*
X1463Y357D01*
X1232Y357D01*
G37*
D02*
G36*
X824Y356D02*
X824Y354D01*
X910Y354D01*
X910Y356D01*
X824Y356D01*
G37*
D02*
G36*
X824Y356D02*
X824Y354D01*
X910Y354D01*
X910Y356D01*
X824Y356D01*
G37*
D02*
G36*
X1232Y356D02*
X1232Y354D01*
X1234Y354D01*
X1234Y339D01*
X1232Y339D01*
X1232Y336D01*
X1231Y336D01*
X1231Y333D01*
X1229Y333D01*
X1229Y331D01*
X1228Y331D01*
X1228Y330D01*
X1226Y330D01*
X1226Y328D01*
X1225Y328D01*
X1225Y327D01*
X1220Y327D01*
X1220Y325D01*
X1234Y325D01*
X1234Y327D01*
X1235Y327D01*
X1235Y330D01*
X1237Y330D01*
X1237Y336D01*
X1238Y336D01*
X1238Y342D01*
X1240Y342D01*
X1240Y348D01*
X1242Y348D01*
X1242Y351D01*
X1240Y351D01*
X1240Y353D01*
X1238Y353D01*
X1238Y354D01*
X1240Y354D01*
X1240Y356D01*
X1232Y356D01*
G37*
D02*
G36*
X662Y354D02*
X662Y350D01*
X661Y350D01*
X661Y347D01*
X659Y347D01*
X659Y342D01*
X658Y342D01*
X658Y339D01*
X656Y339D01*
X656Y336D01*
X673Y336D01*
X673Y337D01*
X670Y337D01*
X670Y339D01*
X669Y339D01*
X669Y344D01*
X670Y344D01*
X670Y347D01*
X672Y347D01*
X672Y348D01*
X673Y348D01*
X673Y350D01*
X675Y350D01*
X675Y351D01*
X678Y351D01*
X678Y353D01*
X682Y353D01*
X682Y354D01*
X662Y354D01*
G37*
D02*
G36*
X795Y354D02*
X795Y353D01*
X909Y353D01*
X909Y354D01*
X795Y354D01*
G37*
D02*
G36*
X795Y354D02*
X795Y353D01*
X909Y353D01*
X909Y354D01*
X795Y354D01*
G37*
D02*
G36*
X795Y353D02*
X795Y351D01*
X801Y351D01*
X801Y350D01*
X803Y350D01*
X803Y348D01*
X799Y348D01*
X799Y347D01*
X795Y347D01*
X795Y345D01*
X790Y345D01*
X790Y344D01*
X786Y344D01*
X786Y342D01*
X781Y342D01*
X781Y340D01*
X904Y340D01*
X904Y342D01*
X906Y342D01*
X906Y347D01*
X907Y347D01*
X907Y350D01*
X909Y350D01*
X909Y353D01*
X795Y353D01*
G37*
D02*
G36*
X796Y351D02*
X796Y350D01*
X798Y350D01*
X798Y351D01*
X796Y351D01*
G37*
D02*
G36*
X1254Y351D02*
X1254Y345D01*
X1252Y345D01*
X1252Y339D01*
X1251Y339D01*
X1251Y333D01*
X1249Y333D01*
X1249Y327D01*
X1248Y327D01*
X1248Y322D01*
X1249Y322D01*
X1249Y319D01*
X1257Y319D01*
X1257Y320D01*
X1255Y320D01*
X1255Y324D01*
X1254Y324D01*
X1254Y337D01*
X1255Y337D01*
X1255Y342D01*
X1257Y342D01*
X1257Y344D01*
X1258Y344D01*
X1258Y347D01*
X1260Y347D01*
X1260Y348D01*
X1263Y348D01*
X1263Y350D01*
X1266Y350D01*
X1266Y351D01*
X1254Y351D01*
G37*
D02*
G36*
X1029Y350D02*
X1029Y348D01*
X1149Y348D01*
X1149Y350D01*
X1029Y350D01*
G37*
D02*
G36*
X1029Y350D02*
X1029Y348D01*
X1149Y348D01*
X1149Y350D01*
X1029Y350D01*
G37*
D02*
G36*
X1279Y350D02*
X1279Y348D01*
X1280Y348D01*
X1280Y347D01*
X1282Y347D01*
X1282Y342D01*
X1283Y342D01*
X1283Y344D01*
X1285Y344D01*
X1285Y345D01*
X1286Y345D01*
X1286Y347D01*
X1288Y347D01*
X1288Y348D01*
X1291Y348D01*
X1291Y350D01*
X1279Y350D01*
G37*
D02*
G36*
X1299Y350D02*
X1299Y348D01*
X1302Y348D01*
X1302Y350D01*
X1299Y350D01*
G37*
D02*
G36*
X679Y348D02*
X679Y347D01*
X678Y347D01*
X678Y345D01*
X679Y345D01*
X679Y344D01*
X681Y344D01*
X681Y339D01*
X679Y339D01*
X679Y337D01*
X676Y337D01*
X676Y336D01*
X681Y336D01*
X681Y337D01*
X682Y337D01*
X682Y339D01*
X685Y339D01*
X685Y347D01*
X684Y347D01*
X684Y348D01*
X679Y348D01*
G37*
D02*
G36*
X1029Y348D02*
X1029Y347D01*
X1154Y347D01*
X1154Y348D01*
X1029Y348D01*
G37*
D02*
G36*
X1029Y348D02*
X1029Y347D01*
X1154Y347D01*
X1154Y348D01*
X1029Y348D01*
G37*
D02*
G36*
X1029Y347D02*
X1029Y345D01*
X1031Y345D01*
X1031Y342D01*
X1168Y342D01*
X1168Y344D01*
X1163Y344D01*
X1163Y345D01*
X1158Y345D01*
X1158Y347D01*
X1029Y347D01*
G37*
D02*
G36*
X738Y345D02*
X738Y342D01*
X739Y342D01*
X739Y340D01*
X741Y340D01*
X741Y339D01*
X742Y339D01*
X742Y337D01*
X749Y337D01*
X749Y339D01*
X750Y339D01*
X750Y340D01*
X752Y340D01*
X752Y345D01*
X738Y345D01*
G37*
D02*
G36*
X1269Y345D02*
X1269Y344D01*
X1268Y344D01*
X1268Y339D01*
X1266Y339D01*
X1266Y336D01*
X1275Y336D01*
X1275Y337D01*
X1274Y337D01*
X1274Y339D01*
X1272Y339D01*
X1272Y345D01*
X1269Y345D01*
G37*
D02*
G36*
X1292Y345D02*
X1292Y344D01*
X1291Y344D01*
X1291Y340D01*
X1292Y340D01*
X1292Y339D01*
X1295Y339D01*
X1295Y337D01*
X1299Y337D01*
X1299Y336D01*
X1303Y336D01*
X1303Y337D01*
X1302Y337D01*
X1302Y340D01*
X1300Y340D01*
X1300Y342D01*
X1299Y342D01*
X1299Y344D01*
X1295Y344D01*
X1295Y345D01*
X1292Y345D01*
G37*
D02*
G36*
X1031Y342D02*
X1031Y340D01*
X1172Y340D01*
X1172Y342D01*
X1031Y342D01*
G37*
D02*
G36*
X1031Y342D02*
X1031Y340D01*
X1172Y340D01*
X1172Y342D01*
X1031Y342D01*
G37*
D02*
G36*
X755Y340D02*
X755Y339D01*
X904Y339D01*
X904Y340D01*
X755Y340D01*
G37*
D02*
G36*
X755Y340D02*
X755Y339D01*
X904Y339D01*
X904Y340D01*
X755Y340D01*
G37*
D02*
G36*
X1031Y340D02*
X1031Y339D01*
X1032Y339D01*
X1032Y334D01*
X1034Y334D01*
X1034Y328D01*
X1035Y328D01*
X1035Y320D01*
X1037Y320D01*
X1037Y313D01*
X1038Y313D01*
X1038Y305D01*
X1040Y305D01*
X1040Y297D01*
X1041Y297D01*
X1041Y288D01*
X1043Y288D01*
X1043Y279D01*
X1044Y279D01*
X1044Y271D01*
X1046Y271D01*
X1046Y262D01*
X1047Y262D01*
X1047Y254D01*
X1049Y254D01*
X1049Y247D01*
X1051Y247D01*
X1051Y239D01*
X1052Y239D01*
X1052Y231D01*
X1054Y231D01*
X1054Y225D01*
X1055Y225D01*
X1055Y219D01*
X1057Y219D01*
X1057Y214D01*
X1058Y214D01*
X1058Y208D01*
X1060Y208D01*
X1060Y206D01*
X1063Y206D01*
X1063Y208D01*
X1064Y208D01*
X1064Y211D01*
X1066Y211D01*
X1066Y214D01*
X1067Y214D01*
X1067Y219D01*
X1069Y219D01*
X1069Y225D01*
X1071Y225D01*
X1071Y231D01*
X1072Y231D01*
X1072Y240D01*
X1074Y240D01*
X1074Y250D01*
X1075Y250D01*
X1075Y257D01*
X1077Y257D01*
X1077Y267D01*
X1078Y267D01*
X1078Y274D01*
X1080Y274D01*
X1080Y282D01*
X1081Y282D01*
X1081Y290D01*
X1083Y290D01*
X1083Y296D01*
X1084Y296D01*
X1084Y302D01*
X1086Y302D01*
X1086Y307D01*
X1088Y307D01*
X1088Y311D01*
X1089Y311D01*
X1089Y316D01*
X1091Y316D01*
X1091Y320D01*
X1092Y320D01*
X1092Y325D01*
X1094Y325D01*
X1094Y328D01*
X1095Y328D01*
X1095Y331D01*
X1097Y331D01*
X1097Y333D01*
X1098Y333D01*
X1098Y336D01*
X1100Y336D01*
X1100Y337D01*
X1101Y337D01*
X1101Y339D01*
X1103Y339D01*
X1103Y340D01*
X1031Y340D01*
G37*
D02*
G36*
X1112Y340D02*
X1112Y339D01*
X1115Y339D01*
X1115Y337D01*
X1117Y337D01*
X1117Y336D01*
X1186Y336D01*
X1186Y337D01*
X1181Y337D01*
X1181Y339D01*
X1177Y339D01*
X1177Y340D01*
X1112Y340D01*
G37*
D02*
G36*
X755Y339D02*
X755Y337D01*
X753Y337D01*
X753Y336D01*
X752Y336D01*
X752Y333D01*
X749Y333D01*
X749Y331D01*
X746Y331D01*
X746Y330D01*
X818Y330D01*
X818Y333D01*
X819Y333D01*
X819Y334D01*
X821Y334D01*
X821Y336D01*
X823Y336D01*
X823Y337D01*
X824Y337D01*
X824Y339D01*
X755Y339D01*
G37*
D02*
G36*
X833Y339D02*
X833Y337D01*
X836Y337D01*
X836Y334D01*
X838Y334D01*
X838Y333D01*
X840Y333D01*
X840Y330D01*
X841Y330D01*
X841Y327D01*
X843Y327D01*
X843Y324D01*
X844Y324D01*
X844Y319D01*
X846Y319D01*
X846Y314D01*
X847Y314D01*
X847Y310D01*
X849Y310D01*
X849Y304D01*
X850Y304D01*
X850Y299D01*
X852Y299D01*
X852Y291D01*
X853Y291D01*
X853Y285D01*
X855Y285D01*
X855Y277D01*
X856Y277D01*
X856Y270D01*
X858Y270D01*
X858Y262D01*
X860Y262D01*
X860Y254D01*
X861Y254D01*
X861Y245D01*
X863Y245D01*
X863Y237D01*
X864Y237D01*
X864Y231D01*
X866Y231D01*
X866Y225D01*
X867Y225D01*
X867Y220D01*
X869Y220D01*
X869Y216D01*
X870Y216D01*
X870Y213D01*
X872Y213D01*
X872Y211D01*
X873Y211D01*
X873Y210D01*
X875Y210D01*
X875Y213D01*
X876Y213D01*
X876Y222D01*
X878Y222D01*
X878Y228D01*
X880Y228D01*
X880Y236D01*
X881Y236D01*
X881Y242D01*
X883Y242D01*
X883Y248D01*
X884Y248D01*
X884Y256D01*
X886Y256D01*
X886Y262D01*
X887Y262D01*
X887Y270D01*
X889Y270D01*
X889Y277D01*
X890Y277D01*
X890Y287D01*
X892Y287D01*
X892Y294D01*
X893Y294D01*
X893Y302D01*
X895Y302D01*
X895Y310D01*
X897Y310D01*
X897Y316D01*
X898Y316D01*
X898Y322D01*
X900Y322D01*
X900Y328D01*
X901Y328D01*
X901Y334D01*
X903Y334D01*
X903Y339D01*
X833Y339D01*
G37*
D02*
G36*
X1282Y339D02*
X1282Y337D01*
X1280Y337D01*
X1280Y336D01*
X1283Y336D01*
X1283Y339D01*
X1282Y339D01*
G37*
D02*
G36*
X656Y336D02*
X656Y334D01*
X679Y334D01*
X679Y336D01*
X656Y336D01*
G37*
D02*
G36*
X656Y336D02*
X656Y334D01*
X679Y334D01*
X679Y336D01*
X656Y336D01*
G37*
D02*
G36*
X1117Y336D02*
X1117Y334D01*
X1195Y334D01*
X1195Y336D01*
X1117Y336D01*
G37*
D02*
G36*
X1117Y336D02*
X1117Y334D01*
X1195Y334D01*
X1195Y336D01*
X1117Y336D01*
G37*
D02*
G36*
X1266Y336D02*
X1266Y334D01*
X1283Y334D01*
X1283Y336D01*
X1266Y336D01*
G37*
D02*
G36*
X1266Y336D02*
X1266Y334D01*
X1283Y334D01*
X1283Y336D01*
X1266Y336D01*
G37*
D02*
G36*
X1300Y336D02*
X1300Y334D01*
X1463Y334D01*
X1463Y336D01*
X1300Y336D01*
G37*
D02*
G36*
X1300Y336D02*
X1300Y334D01*
X1463Y334D01*
X1463Y336D01*
X1300Y336D01*
G37*
D02*
G36*
X655Y334D02*
X655Y330D01*
X656Y330D01*
X656Y320D01*
X658Y320D01*
X658Y317D01*
X664Y317D01*
X664Y316D01*
X675Y316D01*
X675Y317D01*
X673Y317D01*
X673Y319D01*
X672Y319D01*
X672Y328D01*
X673Y328D01*
X673Y330D01*
X675Y330D01*
X675Y333D01*
X678Y333D01*
X678Y334D01*
X655Y334D01*
G37*
D02*
G36*
X1118Y334D02*
X1118Y333D01*
X1120Y333D01*
X1120Y330D01*
X1121Y330D01*
X1121Y327D01*
X1123Y327D01*
X1123Y324D01*
X1124Y324D01*
X1124Y320D01*
X1126Y320D01*
X1126Y316D01*
X1128Y316D01*
X1128Y314D01*
X1203Y314D01*
X1203Y316D01*
X1198Y316D01*
X1198Y317D01*
X1192Y317D01*
X1192Y319D01*
X1188Y319D01*
X1188Y320D01*
X1189Y320D01*
X1189Y322D01*
X1191Y322D01*
X1191Y324D01*
X1192Y324D01*
X1192Y325D01*
X1194Y325D01*
X1194Y330D01*
X1195Y330D01*
X1195Y334D01*
X1118Y334D01*
G37*
D02*
G36*
X1266Y334D02*
X1266Y327D01*
X1286Y327D01*
X1286Y325D01*
X1288Y325D01*
X1288Y322D01*
X1289Y322D01*
X1289Y320D01*
X1291Y320D01*
X1291Y319D01*
X1294Y319D01*
X1294Y317D01*
X1299Y317D01*
X1299Y319D01*
X1300Y319D01*
X1300Y322D01*
X1299Y322D01*
X1299Y324D01*
X1297Y324D01*
X1297Y325D01*
X1294Y325D01*
X1294Y327D01*
X1291Y327D01*
X1291Y328D01*
X1289Y328D01*
X1289Y330D01*
X1286Y330D01*
X1286Y331D01*
X1285Y331D01*
X1285Y334D01*
X1266Y334D01*
G37*
D02*
G36*
X1303Y334D02*
X1303Y333D01*
X1305Y333D01*
X1305Y331D01*
X1306Y331D01*
X1306Y330D01*
X1308Y330D01*
X1308Y319D01*
X1306Y319D01*
X1306Y316D01*
X1305Y316D01*
X1305Y314D01*
X1302Y314D01*
X1302Y313D01*
X1463Y313D01*
X1463Y334D01*
X1303Y334D01*
G37*
D02*
G36*
X726Y330D02*
X726Y328D01*
X816Y328D01*
X816Y330D01*
X726Y330D01*
G37*
D02*
G36*
X726Y330D02*
X726Y328D01*
X816Y328D01*
X816Y330D01*
X726Y330D01*
G37*
D02*
G36*
X1208Y330D02*
X1208Y328D01*
X1206Y328D01*
X1206Y325D01*
X1215Y325D01*
X1215Y327D01*
X1211Y327D01*
X1211Y328D01*
X1209Y328D01*
X1209Y330D01*
X1208Y330D01*
G37*
D02*
G36*
X726Y328D02*
X726Y327D01*
X721Y327D01*
X721Y325D01*
X715Y325D01*
X715Y324D01*
X815Y324D01*
X815Y327D01*
X816Y327D01*
X816Y328D01*
X726Y328D01*
G37*
D02*
G36*
X1268Y327D02*
X1268Y324D01*
X1280Y324D01*
X1280Y322D01*
X1282Y322D01*
X1282Y320D01*
X1280Y320D01*
X1280Y319D01*
X1279Y319D01*
X1279Y317D01*
X1277Y317D01*
X1277Y316D01*
X1274Y316D01*
X1274Y314D01*
X1283Y314D01*
X1283Y327D01*
X1268Y327D01*
G37*
D02*
G36*
X706Y325D02*
X706Y324D01*
X707Y324D01*
X707Y325D01*
X706Y325D01*
G37*
D02*
G36*
X1206Y325D02*
X1206Y324D01*
X1232Y324D01*
X1232Y325D01*
X1206Y325D01*
G37*
D02*
G36*
X1206Y325D02*
X1206Y324D01*
X1232Y324D01*
X1232Y325D01*
X1206Y325D01*
G37*
D02*
G36*
X706Y324D02*
X706Y322D01*
X815Y322D01*
X815Y324D01*
X706Y324D01*
G37*
D02*
G36*
X706Y324D02*
X706Y322D01*
X815Y322D01*
X815Y324D01*
X706Y324D01*
G37*
D02*
G36*
X1206Y324D02*
X1206Y322D01*
X1205Y322D01*
X1205Y319D01*
X1243Y319D01*
X1243Y320D01*
X1237Y320D01*
X1237Y322D01*
X1232Y322D01*
X1232Y324D01*
X1206Y324D01*
G37*
D02*
G36*
X1269Y324D02*
X1269Y320D01*
X1277Y320D01*
X1277Y322D01*
X1279Y322D01*
X1279Y324D01*
X1269Y324D01*
G37*
D02*
G36*
X689Y322D02*
X689Y320D01*
X687Y320D01*
X687Y319D01*
X693Y319D01*
X693Y320D01*
X692Y320D01*
X692Y322D01*
X689Y322D01*
G37*
D02*
G36*
X704Y322D02*
X704Y320D01*
X701Y320D01*
X701Y319D01*
X813Y319D01*
X813Y322D01*
X704Y322D01*
G37*
D02*
G36*
X685Y319D02*
X685Y317D01*
X813Y317D01*
X813Y319D01*
X685Y319D01*
G37*
D02*
G36*
X685Y319D02*
X685Y317D01*
X813Y317D01*
X813Y319D01*
X685Y319D01*
G37*
D02*
G36*
X1205Y319D02*
X1205Y317D01*
X1258Y317D01*
X1258Y319D01*
X1205Y319D01*
G37*
D02*
G36*
X1205Y319D02*
X1205Y317D01*
X1258Y317D01*
X1258Y319D01*
X1205Y319D01*
G37*
D02*
G36*
X659Y317D02*
X659Y316D01*
X662Y316D01*
X662Y317D01*
X659Y317D01*
G37*
D02*
G36*
X684Y317D02*
X684Y316D01*
X812Y316D01*
X812Y317D01*
X684Y317D01*
G37*
D02*
G36*
X1206Y317D02*
X1206Y314D01*
X1263Y314D01*
X1263Y316D01*
X1260Y316D01*
X1260Y317D01*
X1206Y317D01*
G37*
D02*
G36*
X664Y316D02*
X664Y314D01*
X812Y314D01*
X812Y316D01*
X664Y316D01*
G37*
D02*
G36*
X664Y316D02*
X664Y314D01*
X812Y314D01*
X812Y316D01*
X664Y316D01*
G37*
D02*
G36*
X662Y314D02*
X662Y313D01*
X653Y313D01*
X653Y311D01*
X739Y311D01*
X739Y310D01*
X742Y310D01*
X742Y308D01*
X744Y308D01*
X744Y307D01*
X746Y307D01*
X746Y305D01*
X747Y305D01*
X747Y304D01*
X749Y304D01*
X749Y300D01*
X750Y300D01*
X750Y297D01*
X752Y297D01*
X752Y296D01*
X753Y296D01*
X753Y291D01*
X755Y291D01*
X755Y288D01*
X756Y288D01*
X756Y285D01*
X758Y285D01*
X758Y280D01*
X759Y280D01*
X759Y277D01*
X761Y277D01*
X761Y273D01*
X763Y273D01*
X763Y268D01*
X764Y268D01*
X764Y263D01*
X766Y263D01*
X766Y259D01*
X767Y259D01*
X767Y254D01*
X769Y254D01*
X769Y251D01*
X770Y251D01*
X770Y248D01*
X772Y248D01*
X772Y245D01*
X773Y245D01*
X773Y243D01*
X775Y243D01*
X775Y240D01*
X778Y240D01*
X778Y239D01*
X779Y239D01*
X779Y237D01*
X784Y237D01*
X784Y239D01*
X786Y239D01*
X786Y240D01*
X787Y240D01*
X787Y242D01*
X789Y242D01*
X789Y243D01*
X790Y243D01*
X790Y247D01*
X792Y247D01*
X792Y250D01*
X793Y250D01*
X793Y253D01*
X795Y253D01*
X795Y257D01*
X796Y257D01*
X796Y262D01*
X798Y262D01*
X798Y267D01*
X799Y267D01*
X799Y271D01*
X801Y271D01*
X801Y277D01*
X803Y277D01*
X803Y283D01*
X804Y283D01*
X804Y290D01*
X806Y290D01*
X806Y296D01*
X807Y296D01*
X807Y302D01*
X809Y302D01*
X809Y308D01*
X810Y308D01*
X810Y313D01*
X812Y313D01*
X812Y314D01*
X662Y314D01*
G37*
D02*
G36*
X1128Y314D02*
X1128Y313D01*
X1285Y313D01*
X1285Y314D01*
X1128Y314D01*
G37*
D02*
G36*
X1128Y314D02*
X1128Y313D01*
X1285Y313D01*
X1285Y314D01*
X1128Y314D01*
G37*
D02*
G36*
X1128Y314D02*
X1128Y313D01*
X1285Y313D01*
X1285Y314D01*
X1128Y314D01*
G37*
D02*
G36*
X1288Y314D02*
X1288Y313D01*
X1289Y313D01*
X1289Y314D01*
X1288Y314D01*
G37*
D02*
G36*
X1128Y313D02*
X1128Y311D01*
X1129Y311D01*
X1129Y307D01*
X1131Y307D01*
X1131Y302D01*
X1132Y302D01*
X1132Y296D01*
X1134Y296D01*
X1134Y291D01*
X1135Y291D01*
X1135Y285D01*
X1137Y285D01*
X1137Y279D01*
X1138Y279D01*
X1138Y271D01*
X1140Y271D01*
X1140Y265D01*
X1141Y265D01*
X1141Y259D01*
X1143Y259D01*
X1143Y253D01*
X1145Y253D01*
X1145Y248D01*
X1146Y248D01*
X1146Y243D01*
X1148Y243D01*
X1148Y240D01*
X1149Y240D01*
X1149Y237D01*
X1151Y237D01*
X1151Y236D01*
X1152Y236D01*
X1152Y234D01*
X1158Y234D01*
X1158Y236D01*
X1160Y236D01*
X1160Y239D01*
X1161Y239D01*
X1161Y240D01*
X1163Y240D01*
X1163Y243D01*
X1165Y243D01*
X1165Y248D01*
X1166Y248D01*
X1166Y251D01*
X1168Y251D01*
X1168Y256D01*
X1169Y256D01*
X1169Y260D01*
X1171Y260D01*
X1171Y267D01*
X1172Y267D01*
X1172Y271D01*
X1174Y271D01*
X1174Y276D01*
X1175Y276D01*
X1175Y280D01*
X1177Y280D01*
X1177Y285D01*
X1178Y285D01*
X1178Y288D01*
X1180Y288D01*
X1180Y293D01*
X1181Y293D01*
X1181Y296D01*
X1183Y296D01*
X1183Y299D01*
X1185Y299D01*
X1185Y302D01*
X1186Y302D01*
X1186Y304D01*
X1188Y304D01*
X1188Y307D01*
X1189Y307D01*
X1189Y308D01*
X1191Y308D01*
X1191Y310D01*
X1192Y310D01*
X1192Y311D01*
X1194Y311D01*
X1194Y313D01*
X1128Y313D01*
G37*
D02*
G36*
X1206Y313D02*
X1206Y311D01*
X1463Y311D01*
X1463Y313D01*
X1206Y313D01*
G37*
D02*
G36*
X1206Y313D02*
X1206Y311D01*
X1463Y311D01*
X1463Y313D01*
X1206Y313D01*
G37*
D02*
G36*
X1206Y313D02*
X1206Y311D01*
X1463Y311D01*
X1463Y313D01*
X1206Y313D01*
G37*
D02*
G36*
X644Y311D02*
X644Y310D01*
X732Y310D01*
X732Y311D01*
X644Y311D01*
G37*
D02*
G36*
X1208Y311D02*
X1208Y310D01*
X1211Y310D01*
X1211Y308D01*
X1212Y308D01*
X1212Y307D01*
X1214Y307D01*
X1214Y305D01*
X1215Y305D01*
X1215Y302D01*
X1217Y302D01*
X1217Y300D01*
X1218Y300D01*
X1218Y299D01*
X1220Y299D01*
X1220Y296D01*
X1222Y296D01*
X1222Y294D01*
X1223Y294D01*
X1223Y293D01*
X1299Y293D01*
X1299Y291D01*
X1305Y291D01*
X1305Y290D01*
X1308Y290D01*
X1308Y288D01*
X1311Y288D01*
X1311Y287D01*
X1314Y287D01*
X1314Y285D01*
X1315Y285D01*
X1315Y283D01*
X1319Y283D01*
X1319Y282D01*
X1440Y282D01*
X1440Y280D01*
X1451Y280D01*
X1451Y279D01*
X1459Y279D01*
X1459Y277D01*
X1463Y277D01*
X1463Y311D01*
X1208Y311D01*
G37*
D02*
G36*
X481Y310D02*
X481Y308D01*
X729Y308D01*
X729Y310D01*
X481Y310D01*
G37*
D02*
G36*
X481Y310D02*
X481Y308D01*
X729Y308D01*
X729Y310D01*
X481Y310D01*
G37*
D02*
G36*
X481Y308D02*
X481Y291D01*
X645Y291D01*
X645Y290D01*
X649Y290D01*
X649Y288D01*
X652Y288D01*
X652Y287D01*
X653Y287D01*
X653Y285D01*
X656Y285D01*
X656Y283D01*
X658Y283D01*
X658Y282D01*
X659Y282D01*
X659Y280D01*
X661Y280D01*
X661Y279D01*
X662Y279D01*
X662Y277D01*
X664Y277D01*
X664Y276D01*
X665Y276D01*
X665Y274D01*
X667Y274D01*
X667Y273D01*
X669Y273D01*
X669Y271D01*
X670Y271D01*
X670Y270D01*
X672Y270D01*
X672Y268D01*
X673Y268D01*
X673Y267D01*
X675Y267D01*
X675Y265D01*
X678Y265D01*
X678Y263D01*
X679Y263D01*
X679Y262D01*
X681Y262D01*
X681Y260D01*
X684Y260D01*
X684Y259D01*
X692Y259D01*
X692Y260D01*
X695Y260D01*
X695Y262D01*
X696Y262D01*
X696Y263D01*
X698Y263D01*
X698Y265D01*
X699Y265D01*
X699Y268D01*
X701Y268D01*
X701Y270D01*
X702Y270D01*
X702Y273D01*
X704Y273D01*
X704Y274D01*
X706Y274D01*
X706Y277D01*
X707Y277D01*
X707Y279D01*
X709Y279D01*
X709Y282D01*
X710Y282D01*
X710Y285D01*
X712Y285D01*
X712Y288D01*
X713Y288D01*
X713Y290D01*
X715Y290D01*
X715Y293D01*
X716Y293D01*
X716Y296D01*
X718Y296D01*
X718Y297D01*
X719Y297D01*
X719Y300D01*
X721Y300D01*
X721Y302D01*
X722Y302D01*
X722Y304D01*
X724Y304D01*
X724Y305D01*
X726Y305D01*
X726Y307D01*
X727Y307D01*
X727Y308D01*
X481Y308D01*
G37*
D02*
G36*
X1223Y293D02*
X1223Y291D01*
X1225Y291D01*
X1225Y288D01*
X1226Y288D01*
X1226Y287D01*
X1228Y287D01*
X1228Y283D01*
X1229Y283D01*
X1229Y280D01*
X1231Y280D01*
X1231Y277D01*
X1232Y277D01*
X1232Y274D01*
X1234Y274D01*
X1234Y271D01*
X1235Y271D01*
X1235Y268D01*
X1237Y268D01*
X1237Y267D01*
X1238Y267D01*
X1238Y263D01*
X1240Y263D01*
X1240Y262D01*
X1242Y262D01*
X1242Y260D01*
X1243Y260D01*
X1243Y259D01*
X1245Y259D01*
X1245Y257D01*
X1252Y257D01*
X1252Y259D01*
X1255Y259D01*
X1255Y260D01*
X1257Y260D01*
X1257Y262D01*
X1258Y262D01*
X1258Y263D01*
X1260Y263D01*
X1260Y265D01*
X1262Y265D01*
X1262Y267D01*
X1263Y267D01*
X1263Y268D01*
X1265Y268D01*
X1265Y270D01*
X1266Y270D01*
X1266Y273D01*
X1268Y273D01*
X1268Y274D01*
X1269Y274D01*
X1269Y276D01*
X1271Y276D01*
X1271Y277D01*
X1272Y277D01*
X1272Y279D01*
X1274Y279D01*
X1274Y282D01*
X1275Y282D01*
X1275Y283D01*
X1277Y283D01*
X1277Y285D01*
X1279Y285D01*
X1279Y287D01*
X1282Y287D01*
X1282Y288D01*
X1283Y288D01*
X1283Y290D01*
X1286Y290D01*
X1286Y291D01*
X1291Y291D01*
X1291Y293D01*
X1223Y293D01*
G37*
D02*
G36*
X481Y291D02*
X481Y282D01*
X524Y282D01*
X524Y280D01*
X558Y280D01*
X558Y279D01*
X565Y279D01*
X565Y277D01*
X572Y277D01*
X572Y276D01*
X578Y276D01*
X578Y274D01*
X598Y274D01*
X598Y276D01*
X602Y276D01*
X602Y277D01*
X605Y277D01*
X605Y279D01*
X608Y279D01*
X608Y280D01*
X612Y280D01*
X612Y282D01*
X615Y282D01*
X615Y283D01*
X618Y283D01*
X618Y285D01*
X622Y285D01*
X622Y287D01*
X625Y287D01*
X625Y288D01*
X628Y288D01*
X628Y290D01*
X633Y290D01*
X633Y291D01*
X481Y291D01*
G37*
D02*
G36*
X481Y282D02*
X481Y279D01*
X487Y279D01*
X487Y280D01*
X502Y280D01*
X502Y282D01*
X481Y282D01*
G37*
D02*
G36*
X1320Y282D02*
X1320Y280D01*
X1323Y280D01*
X1323Y279D01*
X1325Y279D01*
X1325Y277D01*
X1328Y277D01*
X1328Y276D01*
X1331Y276D01*
X1331Y274D01*
X1335Y274D01*
X1335Y273D01*
X1349Y273D01*
X1349Y274D01*
X1357Y274D01*
X1357Y276D01*
X1362Y276D01*
X1362Y277D01*
X1366Y277D01*
X1366Y279D01*
X1371Y279D01*
X1371Y280D01*
X1380Y280D01*
X1380Y282D01*
X1320Y282D01*
G37*
D02*
G36*
X1391Y282D02*
X1391Y280D01*
X1420Y280D01*
X1420Y282D01*
X1391Y282D01*
G37*
D02*
G36*
X921Y351D02*
X921Y350D01*
X920Y350D01*
X920Y347D01*
X918Y347D01*
X918Y340D01*
X917Y340D01*
X917Y336D01*
X915Y336D01*
X915Y330D01*
X913Y330D01*
X913Y325D01*
X912Y325D01*
X912Y319D01*
X910Y319D01*
X910Y314D01*
X909Y314D01*
X909Y308D01*
X907Y308D01*
X907Y302D01*
X906Y302D01*
X906Y296D01*
X904Y296D01*
X904Y287D01*
X903Y287D01*
X903Y279D01*
X901Y279D01*
X901Y271D01*
X900Y271D01*
X900Y263D01*
X898Y263D01*
X898Y256D01*
X897Y256D01*
X897Y250D01*
X895Y250D01*
X895Y242D01*
X893Y242D01*
X893Y236D01*
X892Y236D01*
X892Y231D01*
X890Y231D01*
X890Y226D01*
X889Y226D01*
X889Y222D01*
X887Y222D01*
X887Y217D01*
X886Y217D01*
X886Y214D01*
X884Y214D01*
X884Y211D01*
X883Y211D01*
X883Y208D01*
X881Y208D01*
X881Y206D01*
X880Y206D01*
X880Y205D01*
X878Y205D01*
X878Y203D01*
X952Y203D01*
X952Y206D01*
X950Y206D01*
X950Y210D01*
X949Y210D01*
X949Y214D01*
X947Y214D01*
X947Y217D01*
X946Y217D01*
X946Y222D01*
X944Y222D01*
X944Y226D01*
X943Y226D01*
X943Y233D01*
X941Y233D01*
X941Y237D01*
X940Y237D01*
X940Y243D01*
X938Y243D01*
X938Y250D01*
X937Y250D01*
X937Y256D01*
X935Y256D01*
X935Y263D01*
X933Y263D01*
X933Y271D01*
X932Y271D01*
X932Y280D01*
X930Y280D01*
X930Y294D01*
X929Y294D01*
X929Y331D01*
X927Y331D01*
X927Y342D01*
X926Y342D01*
X926Y347D01*
X924Y347D01*
X924Y350D01*
X923Y350D01*
X923Y351D01*
X921Y351D01*
G37*
D02*
G36*
X826Y333D02*
X826Y331D01*
X824Y331D01*
X824Y330D01*
X823Y330D01*
X823Y327D01*
X821Y327D01*
X821Y322D01*
X819Y322D01*
X819Y317D01*
X818Y317D01*
X818Y310D01*
X816Y310D01*
X816Y302D01*
X815Y302D01*
X815Y296D01*
X813Y296D01*
X813Y288D01*
X812Y288D01*
X812Y282D01*
X810Y282D01*
X810Y276D01*
X809Y276D01*
X809Y271D01*
X807Y271D01*
X807Y267D01*
X806Y267D01*
X806Y262D01*
X804Y262D01*
X804Y257D01*
X803Y257D01*
X803Y254D01*
X801Y254D01*
X801Y251D01*
X799Y251D01*
X799Y248D01*
X798Y248D01*
X798Y245D01*
X796Y245D01*
X796Y242D01*
X795Y242D01*
X795Y240D01*
X793Y240D01*
X793Y239D01*
X792Y239D01*
X792Y236D01*
X789Y236D01*
X789Y234D01*
X787Y234D01*
X787Y233D01*
X784Y233D01*
X784Y231D01*
X856Y231D01*
X856Y233D01*
X855Y233D01*
X855Y237D01*
X853Y237D01*
X853Y243D01*
X852Y243D01*
X852Y248D01*
X850Y248D01*
X850Y256D01*
X849Y256D01*
X849Y262D01*
X847Y262D01*
X847Y271D01*
X846Y271D01*
X846Y279D01*
X844Y279D01*
X844Y288D01*
X843Y288D01*
X843Y297D01*
X841Y297D01*
X841Y305D01*
X840Y305D01*
X840Y313D01*
X838Y313D01*
X838Y319D01*
X836Y319D01*
X836Y325D01*
X835Y325D01*
X835Y328D01*
X833Y328D01*
X833Y331D01*
X832Y331D01*
X832Y333D01*
X826Y333D01*
G37*
D02*
G36*
X733Y308D02*
X733Y307D01*
X732Y307D01*
X732Y305D01*
X729Y305D01*
X729Y304D01*
X727Y304D01*
X727Y300D01*
X726Y300D01*
X726Y299D01*
X724Y299D01*
X724Y297D01*
X722Y297D01*
X722Y294D01*
X721Y294D01*
X721Y293D01*
X719Y293D01*
X719Y290D01*
X718Y290D01*
X718Y287D01*
X716Y287D01*
X716Y283D01*
X715Y283D01*
X715Y282D01*
X713Y282D01*
X713Y279D01*
X712Y279D01*
X712Y276D01*
X710Y276D01*
X710Y274D01*
X709Y274D01*
X709Y271D01*
X707Y271D01*
X707Y270D01*
X706Y270D01*
X706Y267D01*
X704Y267D01*
X704Y265D01*
X702Y265D01*
X702Y263D01*
X701Y263D01*
X701Y262D01*
X699Y262D01*
X699Y260D01*
X698Y260D01*
X698Y259D01*
X696Y259D01*
X696Y257D01*
X693Y257D01*
X693Y256D01*
X759Y256D01*
X759Y259D01*
X758Y259D01*
X758Y262D01*
X756Y262D01*
X756Y267D01*
X755Y267D01*
X755Y271D01*
X753Y271D01*
X753Y276D01*
X752Y276D01*
X752Y280D01*
X750Y280D01*
X750Y285D01*
X749Y285D01*
X749Y290D01*
X747Y290D01*
X747Y293D01*
X746Y293D01*
X746Y297D01*
X744Y297D01*
X744Y300D01*
X742Y300D01*
X742Y304D01*
X741Y304D01*
X741Y305D01*
X739Y305D01*
X739Y307D01*
X738Y307D01*
X738Y308D01*
X733Y308D01*
G37*
D02*
G36*
X633Y288D02*
X633Y287D01*
X630Y287D01*
X630Y285D01*
X625Y285D01*
X625Y283D01*
X622Y283D01*
X622Y282D01*
X619Y282D01*
X619Y280D01*
X616Y280D01*
X616Y279D01*
X613Y279D01*
X613Y277D01*
X610Y277D01*
X610Y276D01*
X605Y276D01*
X605Y274D01*
X602Y274D01*
X602Y273D01*
X596Y273D01*
X596Y271D01*
X662Y271D01*
X662Y273D01*
X661Y273D01*
X661Y274D01*
X659Y274D01*
X659Y276D01*
X658Y276D01*
X658Y277D01*
X656Y277D01*
X656Y279D01*
X655Y279D01*
X655Y280D01*
X653Y280D01*
X653Y282D01*
X652Y282D01*
X652Y283D01*
X650Y283D01*
X650Y285D01*
X647Y285D01*
X647Y287D01*
X645Y287D01*
X645Y288D01*
X633Y288D01*
G37*
D02*
G36*
X511Y280D02*
X511Y279D01*
X491Y279D01*
X491Y277D01*
X482Y277D01*
X482Y276D01*
X481Y276D01*
X481Y271D01*
X582Y271D01*
X582Y273D01*
X575Y273D01*
X575Y274D01*
X568Y274D01*
X568Y276D01*
X562Y276D01*
X562Y277D01*
X550Y277D01*
X550Y279D01*
X513Y279D01*
X513Y280D01*
X511Y280D01*
G37*
D02*
G36*
X481Y271D02*
X481Y270D01*
X664Y270D01*
X664Y271D01*
X481Y271D01*
G37*
D02*
G36*
X481Y271D02*
X481Y270D01*
X664Y270D01*
X664Y271D01*
X481Y271D01*
G37*
D02*
G36*
X481Y270D02*
X481Y256D01*
X684Y256D01*
X684Y257D01*
X681Y257D01*
X681Y259D01*
X678Y259D01*
X678Y260D01*
X675Y260D01*
X675Y262D01*
X673Y262D01*
X673Y263D01*
X672Y263D01*
X672Y265D01*
X670Y265D01*
X670Y267D01*
X667Y267D01*
X667Y268D01*
X665Y268D01*
X665Y270D01*
X481Y270D01*
G37*
D02*
G36*
X481Y256D02*
X481Y254D01*
X761Y254D01*
X761Y256D01*
X481Y256D01*
G37*
D02*
G36*
X481Y256D02*
X481Y254D01*
X761Y254D01*
X761Y256D01*
X481Y256D01*
G37*
D02*
G36*
X481Y254D02*
X481Y231D01*
X778Y231D01*
X778Y233D01*
X775Y233D01*
X775Y234D01*
X773Y234D01*
X773Y236D01*
X772Y236D01*
X772Y237D01*
X770Y237D01*
X770Y239D01*
X769Y239D01*
X769Y240D01*
X767Y240D01*
X767Y243D01*
X766Y243D01*
X766Y245D01*
X764Y245D01*
X764Y248D01*
X763Y248D01*
X763Y251D01*
X761Y251D01*
X761Y254D01*
X481Y254D01*
G37*
D02*
G36*
X481Y231D02*
X481Y230D01*
X856Y230D01*
X856Y231D01*
X481Y231D01*
G37*
D02*
G36*
X481Y231D02*
X481Y230D01*
X856Y230D01*
X856Y231D01*
X481Y231D01*
G37*
D02*
G36*
X481Y230D02*
X481Y203D01*
X870Y203D01*
X870Y205D01*
X869Y205D01*
X869Y206D01*
X867Y206D01*
X867Y208D01*
X866Y208D01*
X866Y211D01*
X864Y211D01*
X864Y213D01*
X863Y213D01*
X863Y216D01*
X861Y216D01*
X861Y219D01*
X860Y219D01*
X860Y223D01*
X858Y223D01*
X858Y228D01*
X856Y228D01*
X856Y230D01*
X481Y230D01*
G37*
D02*
G36*
X481Y203D02*
X481Y202D01*
X953Y202D01*
X953Y203D01*
X481Y203D01*
G37*
D02*
G36*
X481Y203D02*
X481Y202D01*
X953Y202D01*
X953Y203D01*
X481Y203D01*
G37*
D02*
G36*
X481Y202D02*
X481Y186D01*
X963Y186D01*
X963Y188D01*
X961Y188D01*
X961Y190D01*
X960Y190D01*
X960Y193D01*
X958Y193D01*
X958Y194D01*
X957Y194D01*
X957Y197D01*
X955Y197D01*
X955Y200D01*
X953Y200D01*
X953Y202D01*
X481Y202D01*
G37*
D02*
G04 End of Copper1*
M02*